<svg width="24" height="24" viewBox="0 0 24 24" fill="none" xmlns="http://www.w3.org/2000/svg">
<circle cx="11.7666" cy="12.1025" r="10" fill="#C73434"/>
<path d="M15.6403 15.1097C15.6751 15.1445 15.7028 15.1859 15.7216 15.2314C15.7405 15.2769 15.7502 15.3257 15.7502 15.375C15.7502 15.4243 15.7405 15.4731 15.7216 15.5186C15.7028 15.5641 15.6751 15.6055 15.6403 15.6403C15.6054 15.6752 15.5641 15.7028 15.5186 15.7216C15.473 15.7405 15.4242 15.7502 15.375 15.7502C15.3257 15.7502 15.2769 15.7405 15.2314 15.7216C15.1859 15.7028 15.1445 15.6752 15.1097 15.6403L12 12.5302L8.89028 15.6403C8.81991 15.7107 8.72448 15.7502 8.62496 15.7502C8.52545 15.7502 8.43002 15.7107 8.35965 15.6403C8.28929 15.5699 8.24976 15.4745 8.24976 15.375C8.24976 15.2755 8.28929 15.1801 8.35965 15.1097L11.4698 12L8.35965 8.89031C8.28929 8.81995 8.24976 8.72451 8.24976 8.625C8.24976 8.52549 8.28929 8.43005 8.35965 8.35969C8.43002 8.28932 8.52545 8.24979 8.62496 8.24979C8.72448 8.24979 8.81991 8.28932 8.89028 8.35969L12 11.4698L15.1097 8.35969C15.18 8.28932 15.2755 8.24979 15.375 8.24979C15.4745 8.24979 15.5699 8.28932 15.6403 8.35969C15.7106 8.43005 15.7502 8.52549 15.7502 8.625C15.7502 8.72451 15.7106 8.81995 15.6403 8.89031L12.5301 12L15.6403 15.1097Z" fill="white"/>
</svg>
