<svg width="134" height="30" viewBox="0 0 134 30" fill="none" xmlns="http://www.w3.org/2000/svg">
<path fill-rule="evenodd" clip-rule="evenodd" d="M100.016 13.4262C100.023 13.633 99.9571 13.8355 99.8285 13.9968C99.7622 14.0762 99.6785 14.1395 99.5848 14.1823C99.4911 14.225 99.3887 14.246 99.2856 14.2438C99.1832 14.2489 99.0807 14.232 98.9851 14.1943C98.8895 14.1566 98.8027 14.0989 98.7303 14.025C98.5859 13.876 98.5047 13.6756 98.5047 13.4669C98.4997 13.3693 98.5147 13.2717 98.5491 13.1803C98.5828 13.0888 98.6353 13.0055 98.7028 12.9354C98.7709 12.8609 98.8533 12.8013 98.9452 12.7604C99.037 12.7195 99.1363 12.6982 99.2363 12.6978C99.3368 12.6919 99.4368 12.7075 99.5305 12.7436C99.6248 12.7797 99.7098 12.8355 99.781 12.9073C99.8541 12.9723 99.9122 13.0521 99.9528 13.1415C99.9934 13.2309 100.015 13.3279 100.016 13.4262ZM102.25 8.08147L102.28 9.28828L103.436 9.25703L103.46 10.2591L102.305 10.2904L102.358 12.2944C102.352 12.4789 102.393 12.6617 102.477 12.826C102.557 12.9541 102.732 13.0151 103.001 13.0073C103.105 13.0044 103.208 12.9956 103.311 12.9807C103.427 12.9573 103.554 12.9244 103.694 12.8822L103.941 13.9265C103.737 14.0081 103.521 14.0607 103.301 14.0828C103.116 14.1108 102.93 14.1285 102.743 14.1359C102.481 14.1508 102.218 14.1148 101.969 14.0297C101.784 13.9605 101.619 13.8442 101.49 13.692C101.366 13.5334 101.28 13.3492 101.235 13.1527C101.182 12.9271 101.154 12.6965 101.15 12.4648L101.094 10.3138L100.497 10.3294L100.473 9.32736L101.091 9.31177L101.272 8.09864L102.25 8.08147ZM108.239 12.2272C108.252 12.4977 108.196 12.767 108.074 13.0088C107.964 13.2311 107.806 13.4252 107.611 13.5763C107.413 13.7273 107.192 13.8417 106.955 13.914C106.453 14.0703 105.917 14.0844 105.408 13.9546C105.165 13.8943 104.934 13.7917 104.726 13.6514C104.53 13.5075 104.367 13.3224 104.249 13.1089C104.123 12.8709 104.057 12.6052 104.056 12.3351L104.021 10.9438C104.008 10.6743 104.061 10.4059 104.175 10.1622C104.288 9.94488 104.447 9.75497 104.639 9.60566C104.838 9.44934 105.063 9.33121 105.305 9.25703C105.554 9.17401 105.815 9.12773 106.078 9.11946C106.348 9.11081 106.618 9.14295 106.879 9.21486C107.122 9.27269 107.35 9.37901 107.552 9.5275C107.748 9.67189 107.906 9.86097 108.016 10.0793C108.137 10.3217 108.2 10.5894 108.2 10.861L108.239 12.2272ZM112.26 9.41335C112.455 9.55806 112.615 9.74708 112.725 9.96521C112.846 10.2074 112.909 10.4753 112.908 10.7468L112.943 12.1194C112.958 12.389 112.905 12.6582 112.788 12.901C112.678 13.1232 112.519 13.3172 112.324 13.4685C112.127 13.6197 111.905 13.7341 111.668 13.8061C111.166 13.9628 110.631 13.9769 110.121 13.8468C109.878 13.7865 109.647 13.6838 109.439 13.5435C109.243 13.3996 109.081 13.2145 108.963 13.001C108.835 12.7607 108.768 12.4921 108.769 12.2194L108.733 10.8281C108.721 10.5587 108.774 10.2902 108.888 10.0465C109.001 9.82884 109.16 9.63887 109.353 9.49C109.551 9.33368 109.777 9.21555 110.017 9.14137C110.267 9.05747 110.528 9.01112 110.791 9.0038C111.062 8.99503 111.332 9.02716 111.594 9.09913C111.834 9.15526 112.061 9.25943 112.26 9.40552V9.41335ZM116.347 12.1975C116.56 12.3766 116.805 12.5119 117.069 12.5961C117.306 12.6614 117.55 12.6914 117.795 12.6853C117.981 12.687 118.165 12.6419 118.33 12.554C118.392 12.521 118.444 12.4713 118.481 12.4103C118.516 12.3493 118.535 12.2795 118.534 12.2085C118.534 12.1538 118.521 12.0998 118.496 12.0512C118.472 12.0025 118.436 11.9605 118.392 11.9286C118.253 11.8385 118.093 11.7848 117.928 11.7723L117.241 11.6645C117.02 11.6214 116.805 11.5516 116.601 11.4566C116.412 11.369 116.246 11.2365 116.118 11.0704C115.983 10.8757 115.913 10.6423 115.919 10.4045C115.907 10.1744 115.954 9.9452 116.055 9.73849C116.148 9.54821 116.282 9.38153 116.447 9.25078C116.613 9.11264 116.803 9.0067 117.008 8.93814C117.224 8.86749 117.45 8.82854 117.678 8.82248C118.025 8.81042 118.371 8.83719 118.712 8.90215C119.049 8.97154 119.366 9.11631 119.64 9.32585L119.087 10.2638C118.869 10.1145 118.624 10.0117 118.366 9.96205C118.156 9.91679 117.942 9.89633 117.728 9.90113C117.562 9.89292 117.399 9.94198 117.264 10.0402C117.221 10.076 117.186 10.1212 117.162 10.1722C117.139 10.2234 117.126 10.2792 117.126 10.3357C117.127 10.3947 117.147 10.4518 117.184 10.4984C117.219 10.5449 117.27 10.5784 117.326 10.5936C117.484 10.649 117.647 10.6903 117.812 10.7171C118.011 10.75 118.224 10.7859 118.451 10.8266C118.67 10.8635 118.882 10.933 119.082 11.0329C119.28 11.1233 119.453 11.2631 119.583 11.4393C119.728 11.6482 119.802 11.8988 119.795 12.1538C119.803 12.3857 119.75 12.6158 119.64 12.8197C119.54 13.0135 119.396 13.1806 119.22 13.3074C119.03 13.4491 118.818 13.555 118.591 13.6201C118.345 13.692 118.09 13.7314 117.833 13.7374C117.657 13.7414 117.479 13.7362 117.303 13.7217C117.124 13.7129 116.946 13.6882 116.771 13.6482C116.587 13.5976 116.408 13.5307 116.235 13.4481C116.043 13.3506 115.862 13.231 115.698 13.0917L116.347 12.1975ZM113.717 12.4898L113.572 6.83712L114.796 6.8043L114.935 12.2241C114.935 12.3123 114.944 12.4003 114.961 12.4867C114.978 12.5476 115.012 12.6019 115.06 12.6431C115.123 12.6774 115.193 12.6987 115.264 12.7056C115.373 12.7172 115.483 12.7209 115.592 12.7165L115.638 13.7576C115.536 13.7786 115.433 13.7943 115.329 13.8045C115.233 13.8139 115.14 13.8186 115.051 13.8218C114.816 13.8364 114.581 13.8093 114.354 13.742C114.201 13.6908 114.063 13.6003 113.954 13.4794C113.858 13.356 113.795 13.2103 113.77 13.0558C113.739 12.8661 113.722 12.6743 113.72 12.4821L113.717 12.4898ZM109.955 11.011L109.98 11.9646C109.98 12.1008 110.007 12.2356 110.058 12.3617C110.109 12.4613 110.18 12.5491 110.266 12.6196C110.355 12.6814 110.455 12.7264 110.559 12.7525C110.666 12.776 110.777 12.786 110.887 12.7822C110.988 12.7794 111.088 12.7636 111.185 12.7353C111.286 12.7006 111.379 12.6476 111.461 12.579C111.543 12.5045 111.61 12.4135 111.656 12.3117C111.706 12.1843 111.73 12.0471 111.722 11.9099L111.697 10.9563C111.699 10.8225 111.67 10.6902 111.611 10.5702C111.561 10.4722 111.49 10.3871 111.402 10.3216C111.32 10.2537 111.223 10.2065 111.119 10.184C111.022 10.1535 110.921 10.1392 110.819 10.1419C110.713 10.1463 110.609 10.1657 110.509 10.1997C110.407 10.2292 110.313 10.2828 110.234 10.356C110.15 10.426 110.083 10.5142 110.038 10.614C109.983 10.736 109.955 10.8691 109.959 11.0032L109.955 11.011ZM106.986 11.0892C106.986 10.9553 106.956 10.8232 106.898 10.7031C106.848 10.6055 106.777 10.5205 106.69 10.4545C106.608 10.3878 106.511 10.3407 106.407 10.3169C106.31 10.287 106.208 10.2733 106.107 10.2763C106.002 10.2802 105.898 10.2991 105.798 10.3326C105.695 10.3621 105.601 10.4157 105.523 10.4889C105.439 10.5585 105.372 10.6468 105.328 10.7468C105.275 10.8706 105.252 11.0048 105.26 11.1392L105.285 12.0928C105.285 12.2288 105.311 12.3635 105.361 12.4898C105.413 12.5888 105.484 12.6759 105.571 12.7462C105.656 12.8089 105.752 12.856 105.854 12.8854C105.962 12.909 106.072 12.9189 106.183 12.915C106.283 12.9137 106.383 12.8979 106.48 12.8682C106.58 12.8335 106.674 12.7805 106.755 12.7118C106.838 12.6374 106.904 12.5464 106.95 12.4445C107.002 12.3173 107.025 12.1801 107.018 12.0428L106.986 11.0892ZM122.609 6.18368C122.592 5.56572 122.334 4.97941 121.891 4.55373C121.447 4.12805 120.855 3.89787 120.243 3.91383L97.4777 4.51413C96.8699 4.53375 96.2946 4.79506 95.8766 5.24121C95.4587 5.68736 95.232 6.28226 95.2457 6.89652L95.4637 15.3381C95.4793 15.9561 95.7373 16.5423 96.1809 16.9681C96.6244 17.3937 97.2172 17.6239 97.8288 17.6079L120.595 17.0092C121.203 16.9912 121.78 16.7308 122.199 16.2848C122.618 15.8388 122.846 15.2434 122.833 14.6284L122.609 6.18368Z" fill="black"/>
<path d="M19.049 4.37209C19.049 4.37209 20.9245 4.11324 21.1869 2.92511C21.4494 1.73698 21.3251 0.468473 23.2496 0.674265C25.1741 0.880055 25.2038 2.44279 24.6492 4.37209C24.0946 6.30138 22.0862 7.89147 21.0208 8.47825" fill="black"/>
<path d="M22.4596 3.20196C22.9921 3.38368 23.5121 3.13237 23.6254 2.622C23.7387 2.11164 23.3957 1.55682 22.8632 1.37897C22.3308 1.20112 21.7953 1.32097 21.6944 1.95892C21.5935 2.59688 21.9272 3.02024 22.4596 3.20196Z" fill="#9F6BC9"/>
<path d="M5.91176 3.70801C5.91176 3.70801 4.03324 3.43742 3.83685 1.85922C3.64046 0.281013 2.56628 -0.239117 1.5331 0.0979117C0.499907 0.43494 -0.295903 4.21517 3.25451 7.17391L5.91176 3.70801Z" fill="black"/>
<path fill-rule="evenodd" clip-rule="evenodd" d="M20.1191 28.6956C18.729 28.6956 17.8239 27.7021 17.2529 26.2119C15.6922 26.596 14.0896 26.7775 12.4838 26.7523C10.8774 26.7777 9.27426 26.596 7.71294 26.2119C7.14206 27.7021 6.24018 28.6956 4.84518 28.6956C1.96581 28.6956 0.681682 23.0753 0.65686 17.4867C0.65686 14.2176 1.08546 10.9568 1.90459 8.85231C2.00056 8.60729 2.09986 8.37739 2.20576 8.16593C4.76409 2.98023 8.25574 1.95651 12.4954 1.95651C16.735 1.95651 20.1935 2.96345 22.7552 8.16593C25.3168 13.3685 24.8766 28.6923 20.1075 28.6923" fill="#9F6BC9"/>
<path opacity="0.1" fill-rule="evenodd" clip-rule="evenodd" d="M20.0719 28.0435C18.6679 28.0435 17.7537 27.0574 17.177 25.5782C15.6006 25.9594 13.982 26.1397 12.3601 26.1146C10.6277 26.1015 8.90342 25.8778 7.22546 25.4483C7.22546 25.4483 7.94254 23.7825 9.53038 23.8675C11.1182 23.9525 20.1905 25.0802 20.7555 21.6421C21.3204 18.204 24.023 9.42727 16.4282 1.95651C18.9069 2.66944 21.0279 4.25189 22.7411 7.66997C25.3251 12.8021 24.8838 28.0435 20.0669 28.0435" fill="black"/>
<path opacity="0.1" fill-rule="evenodd" clip-rule="evenodd" d="M7.88234 22.0888C7.80072 22.9086 7.0316 23.6776 5.4274 23.4317C3.69992 23.1677 3.89611 20.49 4.0159 19.5652C4.0159 19.5652 4.27286 22.2855 5.91006 22.543C7.54725 22.8004 7.88234 22.0888 7.88234 22.0888Z" fill="black"/>
<path opacity="0.1" fill-rule="evenodd" clip-rule="evenodd" d="M17.0784 22.0888C17.1566 22.9086 17.9272 23.6776 19.5345 23.4317C21.2616 23.1677 21.0637 20.49 20.9456 19.5652C20.9456 19.5652 20.6836 22.2855 19.0468 22.543C17.41 22.8004 17.0784 22.0888 17.0784 22.0888Z" fill="black"/>
<path d="M16.9139 25.5347C16.9812 25.5361 17.0466 25.5571 17.1025 25.595C17.1576 25.6337 17.2011 25.6871 17.2282 25.7492C17.8139 27.2727 18.6476 28.0136 19.7792 28.0136C20.5517 28.0136 21.2399 27.5242 21.8288 26.5755C22.9323 24.7788 23.6023 21.3078 23.6304 17.3305C23.6552 13.5142 23.0746 9.94261 22.12 8.01017C19.6551 3.00888 16.3497 1.98818 12.1462 1.98818C7.94256 1.98818 4.64552 3.01222 2.1806 7.99507C1.22275 9.92921 0.643739 13.5008 0.665245 17.3171C0.708259 21.2944 1.36502 24.7436 2.48499 26.5621C3.07062 27.5242 3.76212 27.9985 4.53137 27.9985C5.66292 27.9985 6.5 27.2593 7.08396 25.7358C7.11442 25.6564 7.17355 25.5917 7.24938 25.5548C7.32288 25.5162 7.4082 25.5077 7.48763 25.5313C9.01702 25.9088 10.587 26.0907 12.161 26.0727C13.7373 26.0961 15.3102 25.9187 16.8427 25.5447C16.8709 25.538 16.8998 25.5347 16.9288 25.5347M19.794 28.6957C18.4491 28.6957 17.4168 27.8845 16.7253 26.2771C15.2271 26.6142 13.6956 26.775 12.161 26.7565C10.6254 26.7749 9.09279 26.6141 7.59353 26.2771C6.90203 27.8845 5.87302 28.6957 4.52475 28.6957C3.50404 28.6957 2.62065 28.099 1.90432 26.9208C-0.671438 22.7055 -0.48781 11.8617 1.57677 7.69C4.35105 2.077 8.29826 1.30435 12.1528 1.30435C16.0073 1.30435 19.9562 2.077 22.7288 7.69C24.7901 11.8617 24.977 22.7055 22.3979 26.9208C21.6899 28.099 20.8065 28.6957 19.7858 28.6957H19.794Z" fill="black"/>
<path d="M4.53165 19.6101C4.45567 20.7147 4.29311 23.2144 5.78265 23.4702C6.60782 23.6247 7.67504 23.4237 7.90297 22.5418C7.95164 22.3305 7.94679 22.1114 7.88877 21.9022C7.83075 21.6931 7.72121 21.4996 7.56907 21.3375C7.15107 20.9634 6.82173 20.5106 6.60252 20.0088C6.42055 19.5034 6.30889 18.9781 6.27033 18.4458C6.26711 18.4007 6.28227 18.3562 6.31274 18.3213C6.34428 18.2871 6.38856 18.2657 6.43642 18.2614C6.48086 18.258 6.52504 18.2705 6.56011 18.2963C6.59479 18.3218 6.6181 18.3586 6.62549 18.3993C6.71147 19.1335 6.99016 19.8361 7.43656 20.444C7.59198 20.6284 7.78993 20.7994 7.9896 20.9954C8.3275 21.3281 8.52288 21.7664 8.53822 22.2262C8.55357 22.686 8.38772 23.1349 8.0726 23.4869C7.47894 24.1213 6.5124 24.1994 5.6784 24.0881C4.23127 23.8706 3.91145 22.276 3.94325 21.1217C3.95458 20.5898 4.02086 20.0602 4.14115 19.5404C4.14774 19.5168 4.15849 19.4943 4.17296 19.474C4.19529 19.4433 4.22709 19.4198 4.26408 19.4068C4.30106 19.3937 4.34142 19.3917 4.37969 19.4008C4.42774 19.4109 4.46999 19.4376 4.49808 19.4756C4.52491 19.5132 4.53679 19.5585 4.53165 19.6035" fill="black"/>
<path d="M20.8143 19.5521C21.1422 21.0234 21.3355 23.6895 19.2949 24.0784C18.1159 24.2852 16.7134 23.8881 16.4581 22.6601C16.3973 22.3641 16.4126 22.059 16.5025 21.7696C16.5925 21.4802 16.7547 21.2148 16.9758 20.9953C17.1815 20.79 17.3552 20.6411 17.5308 20.4458C17.9738 19.8357 18.2468 19.1321 18.325 18.3986C18.3289 18.3769 18.3373 18.3561 18.3499 18.3374C18.3632 18.3192 18.38 18.3035 18.3995 18.2911C18.4187 18.2784 18.4404 18.2694 18.4633 18.2646C18.4867 18.2596 18.5109 18.2596 18.5342 18.2646C18.5787 18.2716 18.6187 18.294 18.6459 18.3275C18.6734 18.361 18.686 18.403 18.6814 18.445C18.6461 18.9758 18.534 19.4996 18.3481 20.0023C18.1298 20.5032 17.7992 20.9546 17.3783 21.3262C17.2261 21.4892 17.1174 21.6834 17.0606 21.8931C17.0039 22.1027 17.001 22.3218 17.0521 22.5327C17.2489 23.4131 18.3446 23.5968 19.1796 23.4578C20.6689 23.203 20.5093 20.7123 20.4207 19.6117C20.4265 19.5717 20.445 19.5343 20.4738 19.5041C20.5035 19.4745 20.5427 19.4547 20.5855 19.4479C20.6283 19.4408 20.6724 19.4466 20.7114 19.4644C20.7506 19.4827 20.7823 19.5123 20.8018 19.5488L20.8143 19.5521Z" fill="black"/>
<path fill-rule="evenodd" clip-rule="evenodd" d="M17.0785 9.46721C17.0785 11.7926 16.3124 13.6956 12.7795 13.6956C9.24651 13.6956 8.53925 11.7992 8.53925 9.46721C8.53925 7.13519 10.004 5.21738 12.8141 5.21738C15.6241 5.21738 17.0785 7.1484 17.0785 9.46721Z" fill="white"/>
<path d="M12.4812 5.8867C9.60258 5.8867 8.58174 8.00155 8.58174 9.80397C8.58174 11.8169 9.05093 13.6818 12.4519 13.6818C15.9115 13.6818 16.3754 11.7215 16.3754 9.80397C16.3754 7.99497 15.3546 5.88341 12.4812 5.88341V5.8867ZM12.4519 14.3478C8.39788 14.3478 7.88232 11.9156 7.88232 9.80071C7.88232 7.05763 9.72459 5.21738 12.4812 5.21738C15.2378 5.21738 17.0784 7.06088 17.0784 9.80071C17.0784 11.7528 16.6109 14.3478 12.4519 14.3478Z" fill="black"/>
<path fill-rule="evenodd" clip-rule="evenodd" d="M14.8626 10.5448C14.5997 11.2603 14.0843 11.8352 13.4286 12.1447C12.7729 12.4542 12.03 12.4731 11.3614 12.1973C10.9721 12.0178 10.6304 11.7372 10.3671 11.3808C10.1038 11.0244 9.92712 10.6032 9.85297 10.1553L11.975 9.08457L10.0575 8.33128C10.3269 7.62656 10.8422 7.06287 11.4935 6.76086C12.1448 6.45879 12.8802 6.44228 13.5426 6.71484C14.1916 7.0339 14.6962 7.61651 14.9456 8.33474C15.0662 8.69115 15.1205 9.06947 15.1054 9.44833C15.0924 9.82782 15.0087 10.2007 14.8593 10.5448" fill="black"/>
<path d="M2.62157 1.56259C2.66917 2.09965 2.42273 2.56996 2.06149 2.60637C1.70023 2.64278 1.37119 2.24529 1.32218 1.6961C1.27317 1.1469 1.43419 0.661427 1.88226 0.652322C2.33032 0.643217 2.57256 1.01946 2.62157 1.56259Z" fill="#9F6BC9"/>
<path fill-rule="evenodd" clip-rule="evenodd" d="M16.9321 15L16.8427 15.0761C16.5175 15.3298 16.1452 15.4657 15.7972 15.7248L15.7647 15.7484L15.8411 16.3591C15.853 16.4491 15.8801 16.5358 15.9208 16.6147C15.9623 16.693 16.0172 16.7616 16.0825 16.8164C16.1478 16.871 16.2221 16.9109 16.3013 16.9335C16.3797 16.957 16.4615 16.9626 16.5419 16.9499C16.6228 16.9371 16.7006 16.907 16.7712 16.8611C16.8414 16.8138 16.9032 16.7523 16.9533 16.6799C17.0026 16.6075 17.0386 16.5249 17.059 16.4368C17.0794 16.3487 17.0838 16.257 17.0719 16.167L16.9321 15Z" fill="white"/>
<path fill-rule="evenodd" clip-rule="evenodd" d="M14.9013 15.7111C14.5395 15.7992 14.1679 15.8476 13.7941 15.8552L13.8373 16.4191C13.8533 16.5731 13.933 16.7153 14.0595 16.8153C14.1859 16.9154 14.3491 16.9656 14.5145 16.9552C14.6806 16.9448 14.8357 16.8741 14.9464 16.7583C15.0572 16.6424 15.1149 16.4906 15.1072 16.3355L15.0541 15.6522C15.0048 15.6754 14.9538 15.695 14.9013 15.7111Z" fill="white"/>
<path fill-rule="evenodd" clip-rule="evenodd" d="M13.1354 16.3044V16.9689C13.1422 17.0502 13.1306 17.132 13.1012 17.209C13.0707 17.2864 13.0236 17.3574 12.9624 17.4182C12.9007 17.4782 12.8262 17.5262 12.7433 17.5591C12.6606 17.5919 12.5715 17.6088 12.4813 17.6087C12.3906 17.6086 12.3008 17.5917 12.2175 17.5591C12.1344 17.5262 12.0597 17.4782 11.9982 17.4179C11.9366 17.3577 11.8894 17.2866 11.8597 17.209C11.8303 17.132 11.8186 17.0502 11.8254 16.9689V16.3044H13.1354Z" fill="white"/>
<path fill-rule="evenodd" clip-rule="evenodd" d="M10.5098 15.7752L10.4698 16.348C10.464 16.4337 10.4418 16.5173 10.4045 16.5941C10.3672 16.671 10.3155 16.7396 10.2523 16.796C10.1891 16.8523 10.1158 16.8953 10.0364 16.9226C9.95697 16.95 9.87306 16.9609 9.78956 16.9549C9.70599 16.949 9.62444 16.9263 9.54949 16.8879C9.47454 16.8497 9.40767 16.7967 9.35265 16.7319C9.2977 16.6671 9.25575 16.5919 9.22915 16.5105C9.20255 16.429 9.19184 16.343 9.19763 16.2574L9.24093 15.6522L10.5098 15.7752Z" fill="white"/>
<path d="M17.7203 13.9232C16.8606 14.9767 15.6502 15.7442 14.2725 16.1094C12.4268 16.5284 10.4819 16.2183 8.69953 15.6874C8.25739 15.5427 7.82351 15.3774 7.39968 15.1922C7.36287 15.1764 7.33019 15.1536 7.30381 15.1251C7.27625 15.0976 7.25525 15.0651 7.24206 15.0297C7.2294 14.9947 7.22388 14.9578 7.22585 14.9208C7.22861 14.884 7.23911 14.8481 7.25669 14.815C7.27395 14.7815 7.29823 14.7517 7.32822 14.727C7.35847 14.702 7.39384 14.6828 7.43216 14.6703C7.47087 14.6584 7.51176 14.6539 7.55244 14.6569C7.59273 14.6594 7.63197 14.6696 7.6678 14.6867C8.06912 14.8612 8.48016 15.0163 8.90098 15.1535C10.5664 15.6545 12.4008 15.9946 14.1263 15.6397C15.4146 15.3264 16.5709 14.6656 17.4457 13.7427C17.4735 13.7158 17.5111 13.6994 17.5513 13.6965C17.5918 13.6926 17.6323 13.7027 17.6651 13.7248C17.6986 13.746 17.7222 13.7781 17.7312 13.8145C17.7403 13.851 17.734 13.8893 17.7138 13.9217L17.7203 13.9232Z" fill="black"/>
<path d="M88.1497 24.9459L88.7475 23.5599L89.3778 22.2324H90.1855L88.4972 25.7724V27.985H87.7462V25.7808L86.049 22.2324H86.8656L87.5113 23.6017L88.093 24.9459H88.1497ZM93.7691 27.985L93.3325 26.6909H91.1192L90.6906 27.985H89.9153L91.854 22.2324H92.6057L94.5525 27.985H93.7691ZM92.2096 23.2844L91.8061 24.6203L91.3614 25.9895H93.0983L92.6543 24.6203L92.242 23.2844H92.2096ZM98.9202 27.292C98.8076 27.4256 98.678 27.5425 98.5329 27.6427C98.3871 27.7374 98.234 27.8153 98.072 27.8765C97.9159 27.9322 97.7547 27.9739 97.5875 28.0017C97.4263 28.0296 97.2694 28.0435 97.1192 28.0435C96.8497 28.0435 96.5913 28.0017 96.3432 27.9182C96.0958 27.8292 95.8778 27.7039 95.6893 27.5425C95.5008 27.3811 95.3499 27.1835 95.2365 26.9497C95.1239 26.7159 95.0672 26.4515 95.0672 26.1566V24.0525C95.0672 23.7631 95.1239 23.5043 95.2365 23.2761C95.3499 23.0422 95.5031 22.8447 95.6974 22.6832C95.8911 22.5163 96.1142 22.391 96.3675 22.3075C96.6259 22.2185 96.8983 22.1739 97.1833 22.1739C97.4903 22.1739 97.7731 22.2157 98.0322 22.2992C98.2958 22.3826 98.5329 22.5135 98.7428 22.6916L98.3709 23.2927C98.2259 23.1647 98.0425 23.0645 97.8216 22.9922C97.6067 22.9198 97.3939 22.8837 97.1833 22.8837C97.011 22.8837 96.8446 22.9087 96.6826 22.9588C96.5214 23.0089 96.3756 23.0868 96.2467 23.1925C96.1171 23.2983 96.0118 23.4347 95.9316 23.6017C95.8557 23.7686 95.8182 23.9718 95.8182 24.2112V26.0063C95.8182 26.24 95.8535 26.4432 95.9235 26.6157C95.9986 26.7827 96.0958 26.9191 96.2143 27.0249C96.338 27.1306 96.4779 27.2086 96.634 27.2586C96.7901 27.3087 96.9521 27.3337 97.1192 27.3337C97.2429 27.3337 97.402 27.3171 97.5956 27.2837C97.7893 27.2447 97.9858 27.1473 98.1854 26.9915V25.6473H97.2967V24.9543H98.9202V27.292ZM99.8501 27.985V22.2324H100.594V27.292H103.566V27.985H99.8501ZM107.599 27.985L107.163 26.6909H104.949L104.521 27.985H103.745L105.685 22.2324H106.436L108.382 27.985H107.599ZM106.04 23.2844L105.636 24.6203L105.191 25.9895H106.928L106.484 24.6203L106.072 23.2844H106.04Z" fill="black"/>
<path d="M82.6782 25.3354V26.7391H82.2018V25.3354H80.7941V24.8674H82.2018V23.4783H82.6782V24.8674H84.0784V25.3354H82.6782Z" fill="black"/>
<path d="M37.6719 26.8403L38.2322 24.9217L39.0167 22.3934H39.8252L38.0481 27.9947H37.2477L35.4706 22.3934H36.2791L37.0876 25.0193L37.6238 26.8403H37.6719ZM41.2535 22.743C41.2535 22.8622 41.2107 22.9652 41.1254 23.0519C41.04 23.1386 40.9386 23.182 40.8212 23.182C40.7091 23.182 40.6104 23.1386 40.525 23.0519C40.4396 22.9652 40.3969 22.8622 40.3969 22.743C40.3969 22.6237 40.4396 22.5235 40.525 22.4422C40.6104 22.3554 40.7091 22.3121 40.8212 22.3121C40.9386 22.3121 41.04 22.3554 41.1254 22.4422C41.2107 22.5235 41.2535 22.6237 41.2535 22.743ZM40.485 27.9947V23.9624H41.1654V27.9947H40.485ZM44.5799 27.8972C44.4251 27.9513 44.2623 27.9866 44.0916 28.0028C43.9262 28.0245 43.8035 28.0353 43.7234 28.0353C43.3018 28.0353 42.9976 27.9378 42.8108 27.7427C42.6241 27.5476 42.5307 27.2224 42.5307 26.7672V24.5884H41.9703V23.9624H42.5467L42.7068 23.0275H43.2111V23.9624H44.3157V24.5884H43.2111V26.5558C43.2111 26.7183 43.2244 26.8539 43.2511 26.9622C43.2832 27.0652 43.3231 27.1493 43.3712 27.2142C43.4245 27.2739 43.4886 27.3146 43.5633 27.3362C43.638 27.3579 43.7234 27.3687 43.8194 27.3687C43.9102 27.3687 44.0089 27.3633 44.1156 27.3525C44.2277 27.3362 44.3451 27.32 44.4679 27.3037L44.5799 27.8972ZM47.5198 27.6045C47.205 27.7833 46.9462 27.8999 46.7434 27.9541C46.546 28.0028 46.3672 28.0272 46.2071 28.0272C45.8228 28.0272 45.516 27.9189 45.2866 27.7021C45.0571 27.4853 44.9424 27.1899 44.9424 26.8159C44.9424 26.5937 44.9904 26.4067 45.0864 26.255C45.1878 26.1032 45.3106 25.9813 45.4546 25.8892C45.6041 25.7916 45.7615 25.7239 45.927 25.6859C46.0977 25.6425 46.2498 25.6209 46.3832 25.6209H47.5439V25.3119C47.5439 25.0301 47.4665 24.835 47.3118 24.7266C47.157 24.6128 46.9356 24.5559 46.6474 24.5559C46.5086 24.5559 46.3378 24.5776 46.1351 24.6209C45.9376 24.6588 45.7375 24.7618 45.5347 24.9299L45.1985 24.4014C45.4546 24.2009 45.7135 24.0708 45.975 24.0112C46.2364 23.9516 46.4793 23.9218 46.7034 23.9218C47.221 23.9218 47.6026 24.0383 47.8481 24.2713C48.0989 24.499 48.2243 24.8513 48.2243 25.3282V27.9947H47.624L47.5439 27.6207L47.5198 27.6045ZM47.5439 26.1981H46.4953C46.4099 26.1981 46.3165 26.2062 46.2151 26.2224C46.119 26.2333 46.0284 26.2604 45.9429 26.3038C45.8576 26.3417 45.7855 26.404 45.7268 26.4907C45.6734 26.572 45.6468 26.6804 45.6468 26.8159C45.6468 27.011 45.7108 27.1573 45.8389 27.2549C45.9723 27.3525 46.1404 27.4012 46.3432 27.4012C46.4446 27.4012 46.5486 27.3877 46.6553 27.3606C46.7675 27.328 46.8741 27.2901 46.9755 27.2468C47.0823 27.2034 47.1837 27.1573 47.2798 27.1086C47.3758 27.0543 47.4638 27.0056 47.5439 26.9622V26.1981ZM50.8105 23.9218C51.0507 23.9218 51.2561 23.976 51.4269 24.0844C51.5977 24.1873 51.7285 24.3391 51.8191 24.5396C51.9793 24.4095 52.1234 24.3039 52.2514 24.2226C52.3795 24.1413 52.4942 24.0789 52.5956 24.0356C52.697 23.9868 52.7877 23.957 52.8678 23.9461C52.9478 23.9299 53.0252 23.9218 53.0999 23.9218C53.4788 23.9218 53.7776 24.0274 53.9964 24.2388C54.2152 24.4502 54.3246 24.7835 54.3246 25.2388V27.9947H53.6362V25.3851C53.6362 25.1141 53.5855 24.9163 53.4841 24.7916C53.3827 24.667 53.2146 24.6047 52.9798 24.6047C52.8411 24.6047 52.6863 24.648 52.5156 24.7347C52.3501 24.8215 52.1633 24.9461 51.9552 25.1087C51.9659 25.1575 51.9712 25.2008 51.9712 25.2388C51.9766 25.2767 51.9793 25.3228 51.9793 25.377V27.9947H51.2909V25.3607C51.2909 25.0843 51.2321 24.8892 51.1148 24.7754C51.0027 24.6616 50.8612 24.6047 50.6905 24.6047C50.5251 24.6047 50.3623 24.6372 50.2022 24.7022C50.0474 24.7618 49.858 24.8702 49.6339 25.0274V27.9947H48.9455V23.9624H49.5538L49.6258 24.4258C49.7699 24.3174 49.898 24.2307 50.0101 24.1657C50.1275 24.1006 50.2316 24.0491 50.3223 24.0112C50.4183 23.9733 50.5037 23.9489 50.5784 23.9381C50.6585 23.9272 50.7358 23.9218 50.8105 23.9218ZM56.0043 22.743C56.0043 22.8622 55.9616 22.9652 55.8762 23.0519C55.7909 23.1386 55.6895 23.182 55.5721 23.182C55.4599 23.182 55.3612 23.1386 55.2759 23.0519C55.1905 22.9652 55.1478 22.8622 55.1478 22.743C55.1478 22.6237 55.1905 22.5235 55.2759 22.4422C55.3612 22.3554 55.4599 22.3121 55.5721 22.3121C55.6895 22.3121 55.7909 22.3554 55.8762 22.4422C55.9616 22.5235 56.0043 22.6237 56.0043 22.743ZM55.2358 27.9947V23.9624H55.9163V27.9947H55.2358ZM58.8665 23.9218C59.2561 23.9218 59.5602 24.0464 59.779 24.2957C59.9978 24.545 60.1072 24.9 60.1072 25.3607V27.9947H59.4188V25.4502C59.4188 25.1358 59.3521 24.9163 59.2187 24.7916C59.0853 24.6616 58.9172 24.5993 58.7144 24.6047C58.5543 24.6047 58.3648 24.648 58.1461 24.7347C57.9326 24.816 57.7245 24.9217 57.5217 25.0518V27.9947H56.8333V23.9624H57.4416L57.5217 24.4095C57.6924 24.3011 57.8445 24.2144 57.978 24.1494C58.1167 24.0844 58.2394 24.0356 58.3462 24.0031C58.4529 23.9705 58.549 23.9489 58.6343 23.9381C58.7197 23.9272 58.7971 23.9218 58.8665 23.9218ZM60.8842 27.5476C60.8842 27.4338 60.9215 27.328 60.9963 27.2305C61.0763 27.133 61.191 27.0842 61.3405 27.0842C61.4953 27.0842 61.6153 27.133 61.7007 27.2305C61.7861 27.328 61.8288 27.4338 61.8288 27.5476C61.8288 27.6831 61.7861 27.7996 61.7007 27.8972C61.6153 27.9893 61.4953 28.0353 61.3405 28.0353C61.191 28.0353 61.0763 27.9893 60.9963 27.8972C60.9215 27.805 60.8842 27.6885 60.8842 27.5476ZM65.0607 27.8972C64.9059 27.9513 64.7431 27.9866 64.5724 28.0028C64.4069 28.0245 64.2842 28.0353 64.2041 28.0353C63.7826 28.0353 63.4784 27.9378 63.2916 27.7427C63.1049 27.5476 63.0115 27.2224 63.0115 26.7672V24.5884H62.4511V23.9624H63.0275L63.1876 23.0275H63.6918V23.9624H64.7965V24.5884H63.6918V26.5558C63.6918 26.7183 63.7052 26.8539 63.7319 26.9622C63.7639 27.0652 63.8039 27.1493 63.852 27.2142C63.9053 27.2739 63.9694 27.3146 64.0441 27.3362C64.1188 27.3579 64.2041 27.3687 64.3002 27.3687C64.391 27.3687 64.4897 27.3633 64.5964 27.3525C64.7085 27.3362 64.8259 27.32 64.9486 27.3037L65.0607 27.8972ZM68.7851 26.572C68.7851 26.8051 68.7397 27.0137 68.649 27.198C68.5636 27.3769 68.4436 27.5286 68.2888 27.6532C68.1394 27.7779 67.966 27.8728 67.7685 27.9378C67.5711 28.0028 67.3603 28.0353 67.1361 28.0353C66.9067 28.0353 66.6932 28.0028 66.4958 27.9378C66.2983 27.8728 66.1249 27.7779 65.9755 27.6532C65.8314 27.5286 65.7166 27.3769 65.6313 27.198C65.5458 27.0137 65.5032 26.8051 65.5032 26.572V25.4013C65.5032 25.1683 65.5458 24.9623 65.6313 24.7835C65.722 24.5993 65.8394 24.4448 65.9834 24.3201C66.1329 24.1901 66.3063 24.0925 66.5037 24.0274C66.7066 23.957 66.92 23.9218 67.1441 23.9218C67.3843 23.9218 67.6031 23.957 67.8005 24.0274C68.0033 24.0925 68.1767 24.1901 68.3208 24.3201C68.4702 24.4448 68.585 24.5993 68.665 24.7835C68.7451 24.9623 68.7851 25.1683 68.7851 25.4013V26.572ZM68.1047 25.5233C68.1047 25.3499 68.0753 25.2036 68.0167 25.0843C67.9579 24.9597 67.8806 24.8594 67.7845 24.7835C67.6938 24.7077 67.5924 24.6534 67.4803 24.6209C67.3683 24.5884 67.2589 24.5722 67.1522 24.5722C67.0401 24.5722 66.928 24.5884 66.816 24.6209C66.7039 24.6534 66.5998 24.7077 66.5037 24.7835C66.4131 24.8594 66.3384 24.9597 66.2796 25.0843C66.221 25.2036 66.1916 25.3499 66.1916 25.5233V26.4338C66.1916 26.6073 66.2156 26.7563 66.2636 26.881C66.317 27.0002 66.3864 27.0978 66.4718 27.1736C66.5571 27.2495 66.6586 27.3037 66.7759 27.3362C66.8933 27.3687 67.0187 27.3849 67.1522 27.3849C67.2589 27.3849 67.3683 27.3687 67.4803 27.3362C67.5924 27.3037 67.6938 27.2495 67.7845 27.1736C67.8806 27.0978 67.9579 27.0002 68.0167 26.881C68.0753 26.7563 68.1047 26.6073 68.1047 26.4338V25.5233ZM72.8266 26.572C72.8266 26.8051 72.7814 27.0137 72.6902 27.198C72.6049 27.3769 72.4852 27.5286 72.3306 27.6532C72.181 27.7779 72.0074 27.8728 71.8097 27.9378C71.6127 28.0028 71.4017 28.0353 71.1776 28.0353C70.9481 28.0353 70.7347 28.0028 70.5372 27.9378C70.3398 27.8728 70.1663 27.7779 70.0169 27.6532C69.8728 27.5286 69.7581 27.3769 69.6727 27.198C69.5873 27.0137 69.5446 26.8051 69.5446 26.572V25.4013C69.5446 25.1683 69.5873 24.9623 69.6727 24.7835C69.7634 24.5993 69.8808 24.4448 70.0249 24.3201C70.1743 24.1901 70.3477 24.0925 70.5452 24.0274C70.748 23.957 70.9614 23.9218 71.1856 23.9218C71.4259 23.9218 71.6448 23.957 71.8418 24.0274C72.0446 24.0925 72.2182 24.1901 72.3619 24.3201C72.5115 24.4448 72.6268 24.5993 72.7063 24.7835C72.7865 24.9623 72.8266 25.1683 72.8266 25.4013V26.572ZM72.146 25.5233C72.146 25.3499 72.1168 25.2036 72.0584 25.0843C71.9993 24.9597 71.922 24.8594 71.8257 24.7835C71.7352 24.7077 71.6338 24.6534 71.5215 24.6209C71.4097 24.5884 71.3003 24.5722 71.1936 24.5722C71.0815 24.5722 70.9694 24.5884 70.8574 24.6209C70.7453 24.6534 70.6413 24.7077 70.5452 24.7835C70.4545 24.8594 70.3797 24.9597 70.3211 25.0843C70.2624 25.2036 70.233 25.3499 70.233 25.5233V26.4338C70.233 26.6073 70.257 26.7563 70.305 26.881C70.3584 27.0002 70.4278 27.0978 70.5132 27.1736C70.5985 27.2495 70.6999 27.3037 70.8173 27.3362C70.9348 27.3687 71.0602 27.3849 71.1936 27.3849C71.3003 27.3849 71.4097 27.3687 71.5215 27.3362C71.6338 27.3037 71.7352 27.2495 71.8257 27.1736C71.922 27.0978 71.9993 27.0002 72.0584 26.881C72.1168 26.7563 72.146 26.6073 72.146 26.4338V25.5233ZM74.5469 26.9216C74.5469 27.133 74.5921 27.2657 74.6826 27.32C74.7789 27.3687 74.9365 27.3877 75.1546 27.3769L75.1707 28.011C75.0963 28.0218 75.024 28.0299 74.9547 28.0353C74.8905 28.0407 74.8293 28.0435 74.7709 28.0435C74.5841 28.0435 74.4317 28.0218 74.3142 27.9784C74.2026 27.9297 74.1114 27.8619 74.0421 27.7752C73.9728 27.6831 73.9246 27.5747 73.8983 27.45C73.8772 27.32 73.8663 27.1736 73.8663 27.011V22.1739H74.5469V26.9216ZM78.8235 26.8403C78.8235 27.03 78.7841 27.198 78.7039 27.3443C78.6236 27.4907 78.5142 27.618 78.3756 27.7264C78.237 27.8294 78.0714 27.908 77.8795 27.9622C77.6869 28.0164 77.4768 28.0435 77.247 28.0435C76.9697 28.0435 76.6998 28.0082 76.4386 27.9378C76.1767 27.8619 75.9126 27.721 75.6464 27.5151L76.0221 27.0029C76.2198 27.1709 76.4226 27.2874 76.6305 27.3525C76.8384 27.4121 77.0653 27.4419 77.3112 27.4419C77.4067 27.4419 77.503 27.431 77.5993 27.4094C77.7008 27.3823 77.7883 27.3443 77.8634 27.2956C77.9437 27.2468 78.0072 27.1845 78.0553 27.1086C78.1035 27.0273 78.1275 26.9325 78.1275 26.8241C78.1275 26.6506 78.0663 26.526 77.9437 26.4501C77.8204 26.3742 77.6657 26.32 77.479 26.2875C77.2762 26.255 77.0733 26.2198 76.8705 26.1818C76.6735 26.1385 76.4948 26.0761 76.3343 25.9948C76.1745 25.9135 76.0432 25.8051 75.9425 25.6696C75.8411 25.5342 75.7901 25.3553 75.7901 25.1331C75.7901 24.9488 75.8273 24.7808 75.9024 24.6291C75.9768 24.4773 76.0812 24.35 76.2147 24.247C76.3474 24.144 76.4999 24.0654 76.6706 24.0112C76.8464 23.9516 77.0361 23.9218 77.2389 23.9218C77.5381 23.9218 77.8022 23.9543 78.0312 24.0194C78.261 24.0789 78.4821 24.1873 78.6959 24.3445L78.3515 24.8648C78.1647 24.7456 77.9831 24.6616 77.8073 24.6128C77.6314 24.564 77.4418 24.5396 77.2389 24.5396C77.004 24.5396 76.8143 24.5965 76.6706 24.7103C76.5262 24.8187 76.4547 24.9569 76.4547 25.125C76.4547 25.2659 76.5131 25.3715 76.6305 25.442C76.748 25.5125 76.8946 25.5694 77.0711 25.6127C77.247 25.6507 77.4367 25.6886 77.6395 25.7265C77.8423 25.7591 78.0312 25.816 78.2078 25.8972C78.3836 25.9786 78.5302 26.0924 78.6477 26.2387C78.7652 26.3851 78.8235 26.5856 78.8235 26.8403Z" fill="black"/>
<path d="M41.9564 8.13373L40.9415 12.2152L39.616 17.6087H36.4884L32.8431 3.26086H35.8671L37.1098 8.92502L38.0625 13.3605H38.2075L39.3053 8.8834L40.7137 3.26086H43.3648L44.856 9.17493L45.8917 13.3605H46.0159L46.9065 9.13325L48.2114 3.26086H51.2353L47.5486 17.6087H44.4625L43.1369 12.1944L42.1014 8.13373H41.9564Z" fill="black"/>
<path d="M59.6816 14.6516H54.6126L53.6621 17.6087H50.5784L55.6897 3.26086H58.6467L63.7157 17.6087H60.5687L59.6816 14.6516ZM55.3941 12.2569H58.9001L58.3298 10.4244L57.1893 6.63437H57.1048L55.9854 10.3619L55.3941 12.2569Z" fill="black"/>
<path d="M75.9034 9.90373L74.5778 12.5484L72.962 15.6304H70.9116L69.3169 12.6109L67.929 9.90373H67.8466V17.6087H65.0294V3.26086H67.6393L70.1867 8.32115L71.9062 11.8612H72.0304L73.7699 8.23785L76.2143 3.26086H78.8235V17.6087H75.9864V9.90373H75.9034Z" fill="black"/>
<path d="M82.1078 3.26086H91.9608V5.82223H84.9499V9.11244H90.9447V11.6738H84.9499V15.0682H91.9608V17.6087H82.1078V3.26086Z" fill="black"/>
</svg>
